<svg width="32" height="32" viewBox="0 0 32 32" fill="none" xmlns="http://www.w3.org/2000/svg">
<path d="M20 2.66663H12C11.2636 2.66663 10.6667 3.26358 10.6667 3.99996V6.66663C10.6667 7.40301 11.2636 7.99996 12 7.99996H20C20.7364 7.99996 21.3334 7.40301 21.3334 6.66663V3.99996C21.3334 3.26358 20.7364 2.66663 20 2.66663Z" stroke="#F4F4F4" stroke-width="1.4" stroke-linecap="round" stroke-linejoin="round"/>
<path d="M21.3333 5.33337H24C24.7072 5.33337 25.3855 5.61433 25.8856 6.11442C26.3857 6.61452 26.6666 7.2928 26.6666 8.00004V26.6667C26.6666 27.374 26.3857 28.0522 25.8856 28.5523C25.3855 29.0524 24.7072 29.3334 24 29.3334H7.99998C7.29274 29.3334 6.61446 29.0524 6.11436 28.5523C5.61426 28.0522 5.33331 27.374 5.33331 26.6667V8.00004C5.33331 7.2928 5.61426 6.61452 6.11436 6.11442C6.61446 5.61433 7.29274 5.33337 7.99998 5.33337H10.6666" stroke="#F4F4F4" stroke-width="1.4" stroke-linecap="round" stroke-linejoin="round"/>
<path d="M12 18.6667L14.6667 21.3333L20 16" stroke="#F4F4F4" stroke-width="1.4" stroke-linecap="round" stroke-linejoin="round"/>
</svg>
